<svg xmlns="http://www.w3.org/2000/svg" viewBox="0 0 80 56.67">
<path d="M31.67,0A21.65,21.65,0,0,0,10,21.67V22A18.06,18.06,0,0,0,0,38.33,18.42,18.42,0,0,0,18.33,56.67h45A16.8,16.8,0,0,0,80,40,17.27,17.27,0,0,0,69.58,24.27a8,8,0,0,0,.42-2.6A11.53,11.53,0,0,0,58.33,10a10.57,10.57,0,0,0-7.08,2.29A21.57,21.57,0,0,0,31.67,0ZM40,16.67a16.41,16.41,0,0,1,11.77,4.58l4.9-4.58V30H43.33l4.8-5a11.58,11.58,0,0,0-8-3.33A11.7,11.7,0,0,0,29.17,30H23.65A16.64,16.64,0,0,1,40,16.67Zm-16.67,20H36.67l-4.8,4.58a11.58,11.58,0,0,0,8,3.33,11.34,11.34,0,0,0,10.93-7.91h5.52A17,17,0,0,1,40,50a16.76,16.76,0,0,1-11.77-5l-4.9,5V36.67Z"/>
</svg>