<svg xmlns="http://www.w3.org/2000/svg" viewBox="-2 -2 24 24">
  <circle cx="10" cy="10" r="9.5"/>
  <path fill="var(--main-bg)" d="M17.436 7.357c-1.429-1.876-4.235-2.116-5.982-.511l-.977.898-.957 0-.977-.898c-1.748-1.605-4.554-1.365-5.983.511-.185.731.101 3.431.263 3.856.325 1.715 1.727 3.005 3.408 3.005.839 0 1.599-.335 2.2-.871l.366-.313a1.813 1.813 0 0 1 2.354-.019l.55.456 0-.002c.579.466 1.289.751 2.065.751 1.68 0 3.082-1.29 3.408-3.005.161-.427.457-3.115.262-3.858z"/>
  <path d="M6.625 8.553c-.697 0-1.317.291-1.717.743a.65.65 0 0 0 0 .848c.4.452 1.02.743 1.717.743s1.317-.291 1.717-.743a.65.65 0 0 0 0-.848c-.4-.452-1.02-.743-1.717-.743z"/>
  <path d="M13.375 8.553c-.697 0-1.317.291-1.717.743a.65.65 0 0 0 0 .848c.4.452 1.02.743 1.717.743.697 0 1.317-.291 1.717-.743a.65.65 0 0 0 0-.848c-.4-.452-1.02-.743-1.717-.743z"/>
</svg>